<?xml version="1.0" encoding="UTF-8" standalone="no"?>
<svg
   xmlns:dc="http://purl.org/dc/elements/1.1/"
   xmlns:cc="http://creativecommons.org/ns#"
   xmlns:rdf="http://www.w3.org/1999/02/22-rdf-syntax-ns#"
   xmlns:svg="http://www.w3.org/2000/svg"
   xmlns="http://www.w3.org/2000/svg"
   xmlns:sodipodi="http://sodipodi.sourceforge.net/DTD/sodipodi-0.dtd"
   xmlns:inkscape="http://www.inkscape.org/namespaces/inkscape"
   version="1.1"
   id="svg2"
   viewBox="19 0 802 497"
   height="25cm"
   width="41cm"
   inkscape:version="0.91 r13725"
   sodipodi:docname="FSM.svg">
  <sodipodi:namedview
     pagecolor="#ffffff"
     bordercolor="#666666"
     borderopacity="1"
     objecttolerance="10"
     gridtolerance="10"
     guidetolerance="10"
     inkscape:pageopacity="0"
     inkscape:pageshadow="2"
     inkscape:window-width="1318"
     inkscape:window-height="588"
     id="namedview4314"
     showgrid="false"
     inkscape:zoom="0.44880217"
     inkscape:cx="669.49099"
     inkscape:cy="523.27063"
     inkscape:window-x="1468"
     inkscape:window-y="282"
     inkscape:window-maximized="0"
     inkscape:current-layer="svg2" />
  <metadata
     id="metadata358">
    <rdf:RDF>
      <cc:Work
         rdf:about="">
        <dc:format>image/svg+xml</dc:format>
        <dc:type
           rdf:resource="http://purl.org/dc/dcmitype/StillImage" />
        <dc:title></dc:title>
      </cc:Work>
    </rdf:RDF>
  </metadata>
  <defs
     id="defs356" />
  <ellipse
     id="ellipse4"
     ry="10"
     rx="10"
     cy="30"
     cx="450"
     style="fill: #000000" />
  <g
     id="g6">
    <polyline
       id="polyline8"
       points="440,30 120,30 120,120 122.947,120 "
       style="fill: none; fill-opacity:0; stroke-width: 2; stroke: #000000" />
    <polyline
       id="polyline10"
       points="110.711,125 120.711,120 110.711,115 "
       style="fill: none; fill-opacity:0; stroke-width: 2; stroke: #000000" />
    <text
       id="text12"
       y="80"
       x="100"
       style="fill: #000000;text-anchor:middle;font-family:sans-serif;font-style:normal;font-weight:normal"
       font-size="12.7998">-c</text>
  </g>
  <g
     id="g14">
    <polyline
       id="polyline16"
       points="440,30 231.575,30 231.575,115.528 "
       style="fill: none; fill-opacity:0; stroke-width: 2; stroke: #000000" />
    <polyline
       id="polyline18"
       points="226.575,107.764 231.575,117.764 236.575,107.764 "
       style="fill: none; fill-opacity:0; stroke-width: 2; stroke: #000000" />
    <text
       id="text20"
       y="80"
       x="215.799"
       style="fill: #000000;text-anchor:middle;font-family:sans-serif;font-style:normal;font-weight:normal"
       font-size="12.7998">-i</text>
  </g>
  <g
     id="g22">
    <polyline
       id="polyline24"
       points="440,30 360,30 360,115.528 "
       style="fill: none; fill-opacity:0; stroke-width: 2; stroke: #000000" />
    <polyline
       id="polyline26"
       points="355,107.764 360,117.764 365,107.764 "
       style="fill: none; fill-opacity:0; stroke-width: 2; stroke: #000000" />
    <text
       id="text28"
       y="80"
       x="340"
       style="fill: #000000;text-anchor:middle;font-family:sans-serif;font-style:normal;font-weight:normal"
       font-size="12.7998">-?</text>
  </g>
  <g
     id="g30">
    <rect
       id="rect32"
       ry="10"
       rx="10"
       height="52"
       width="101.1"
       y="120"
       x="60"
       style="fill: #ffffff" />
    <rect
       id="rect34"
       ry="10"
       rx="10"
       height="52"
       width="101.1"
       y="120"
       x="60"
       style="fill: none; fill-opacity:0; stroke-width: 2; stroke: #000000" />
    <text
       id="text36"
       y="141.6"
       x="110.55"
       style="fill: #000000;text-anchor:middle;font-family:sans-serif;font-style:normal;font-weight:normal"
       font-size="12.8">
      <tspan
         id="tspan38"
         y="141.6"
         x="110.55">&lt;:die, :dice&gt;</tspan>
      <tspan
         id="tspan40"
         y="157.6"
         x="110.55">&lt;:lock, :clock&gt;</tspan>
    </text>
  </g>
  <g
     id="g42">
    <rect
       id="rect44"
       ry="10"
       rx="10"
       height="36"
       width="103.15"
       y="120"
       x="180"
       style="fill: #ffffff" />
    <rect
       id="rect46"
       ry="10"
       rx="10"
       height="36"
       width="103.15"
       y="120"
       x="180"
       style="fill: none; fill-opacity:0; stroke-width: 2; stroke: #000000" />
    <text
       id="text48"
       y="141.6"
       x="231.575"
       style="fill: #000000;text-anchor:middle;font-family:sans-serif;font-style:normal;font-weight:normal"
       font-size="12.8">
      <tspan
         id="tspan50"
         y="141.6"
         x="231.575">&lt;:horn, :rhino&gt;</tspan>
    </text>
  </g>
  <g
     id="g52">
    <rect
       id="rect54"
       ry="10"
       rx="10"
       height="36"
       width="80"
       y="120"
       x="320"
       style="fill: #ffffff" />
    <rect
       id="rect56"
       ry="10"
       rx="10"
       height="36"
       width="80"
       y="120"
       x="320"
       style="fill: none; fill-opacity:0; stroke-width: 2; stroke: #000000" />
    <text
       id="text58"
       y="141.6"
       x="360"
       style="fill: #000000;text-anchor:middle;font-family:sans-serif;font-style:normal;font-weight:normal"
       font-size="12.8">
      <tspan
         id="tspan60"
         y="141.6"
         x="360">...</tspan>
    </text>
  </g>
  <g
     id="g62">
    <polyline
       id="polyline64"
       points="450,30 450,30 525.874,30 525.874,115.528 "
       style="fill: none; fill-opacity:0; stroke-width: 2; stroke: #000000" />
    <polyline
       id="polyline66"
       points="520.874,107.764 525.874,117.764 530.874,107.764 "
       style="fill: none; fill-opacity:0; stroke-width: 2; stroke: #000000" />
    <text
       id="text68"
       y="80"
       x="512.938"
       style="fill: #000000;text-anchor:middle;font-family:sans-serif;font-style:normal;font-weight:normal"
       font-size="12.7998">+d</text>
  </g>
  <g
     id="g70">
    <polyline
       id="polyline72"
       points="460,30 663.475,30 663.475,115.528 "
       style="fill: none; fill-opacity:0; stroke-width: 2; stroke: #000000" />
    <polyline
       id="polyline74"
       points="658.475,107.764 663.475,117.764 668.475,107.764 "
       style="fill: none; fill-opacity:0; stroke-width: 2; stroke: #000000" />
    <text
       id="text76"
       y="80"
       x="641.739"
       style="fill: #000000;text-anchor:middle;font-family:sans-serif;font-style:normal;font-weight:normal"
       font-size="12.7998">+m</text>
  </g>
  <g
     id="g78">
    <polyline
       id="polyline80"
       points="450,30 450,30 780,30 780,115.528 "
       style="fill: none; fill-opacity:0; stroke-width: 2; stroke: #000000" />
    <polyline
       id="polyline82"
       points="775,107.764 780,117.764 785,107.764 "
       style="fill: none; fill-opacity:0; stroke-width: 2; stroke: #000000" />
    <text
       id="text84"
       y="80"
       x="760"
       style="fill: #000000;text-anchor:middle;font-family:sans-serif;font-style:normal;font-weight:normal"
       font-size="12.7998">+?</text>
  </g>
  <g
     id="g86">
    <rect
       id="rect88"
       ry="10"
       rx="10"
       height="68"
       width="113.1"
       y="120"
       x="460"
       style="fill: #ffffff" />
    <rect
       id="rect90"
       ry="10"
       rx="10"
       height="68"
       width="113.1"
       y="120"
       x="460"
       style="fill: none; fill-opacity:0; stroke-width: 2; stroke: #000000" />
    <text
       id="text92"
       y="141.6"
       x="516.55"
       style="fill: #000000;text-anchor:middle;font-family:sans-serif;font-style:normal;font-weight:normal"
       font-size="12.8">
      <tspan
         id="tspan94"
         y="141.6"
         x="516.55">&lt;:dice, :ice&gt;</tspan>
      <tspan
         id="tspan96"
         y="157.6"
         x="516.55">&lt;:darts, :star&gt;</tspan>
      <tspan
         id="tspan98"
         y="173.6"
         x="516.55">&lt;:desert, :steer&gt;</tspan>
    </text>
  </g>
  <g
     id="g100">
    <rect
       id="rect102"
       ry="10"
       rx="10"
       height="36"
       width="86.95"
       y="120"
       x="620"
       style="fill: #ffffff" />
    <rect
       id="rect104"
       ry="10"
       rx="10"
       height="36"
       width="86.95"
       y="120"
       x="620"
       style="fill: none; fill-opacity:0; stroke-width: 2; stroke: #000000" />
    <text
       id="text106"
       y="141.6"
       x="663.475"
       style="fill: #000000;text-anchor:middle;font-family:sans-serif;font-style:normal;font-weight:normal"
       font-size="12.8">
      <tspan
         id="tspan108"
         y="141.6"
         x="663.475">&lt;:time, :tie&gt;</tspan>
    </text>
  </g>
  <g
     id="g110">
    <rect
       id="rect112"
       ry="10"
       rx="10"
       height="36"
       width="80"
       y="120"
       x="740"
       style="fill: #ffffff" />
    <rect
       id="rect114"
       ry="10"
       rx="10"
       height="36"
       width="80"
       y="120"
       x="740"
       style="fill: none; fill-opacity:0; stroke-width: 2; stroke: #000000" />
    <text
       id="text116"
       y="141.6"
       x="780"
       style="fill: #000000;text-anchor:middle;font-family:sans-serif;font-style:normal;font-weight:normal"
       font-size="12.8">
      <tspan
         id="tspan118"
         y="141.6"
         x="780">...</tspan>
    </text>
  </g>
  <g
     id="g120">
    <polyline
       id="polyline122"
       points="340,240 120,240 120,320 94.0971,320 "
       style="fill: none; fill-opacity:0; stroke-width: 2; stroke: #000000" />
    <polyline
       id="polyline124"
       points="101.861,315 91.8611,320 101.861,325 "
       style="fill: none; fill-opacity:0; stroke-width: 2; stroke: #000000" />
    <text
       id="text126"
       y="280"
       x="100"
       style="fill: #000000;text-anchor:middle;font-family:sans-serif;font-style:normal;font-weight:normal"
       font-size="12.7998">+a</text>
  </g>
  <g
     id="g128">
    <polyline
       id="polyline130"
       points="118.475,172 118.475,240 220,240 220,315.528 "
       style="fill: none; fill-opacity:0; stroke-width: 2; stroke: #000000" />
    <polyline
       id="polyline132"
       points="215,307.764 220,317.764 225,307.764 "
       style="fill: none; fill-opacity:0; stroke-width: 2; stroke: #000000" />
    <text
       id="text134"
       y="280"
       x="200.012"
       style="fill: #000000;text-anchor:middle;font-family:sans-serif;font-style:normal;font-weight:normal"
       font-size="12.7998">+g</text>
  </g>
  <g
     id="g136">
    <polyline
       id="polyline138"
       points="340,240 340,240 340,315.528 "
       style="fill: none; fill-opacity:0; stroke-width: 2; stroke: #000000" />
    <polyline
       id="polyline140"
       points="335,307.764 340,317.764 345,307.764 "
       style="fill: none; fill-opacity:0; stroke-width: 2; stroke: #000000" />
    <text
       id="text142"
       y="285"
       x="320"
       style="fill: #000000;text-anchor:middle;font-family:sans-serif;font-style:normal;font-weight:normal"
       font-size="12.7998">-?</text>
  </g>
  <g
     id="g144">
    <rect
       id="rect146"
       ry="10"
       rx="10"
       height="52"
       width="119.5"
       y="320"
       x="20"
       style="fill: #ffffff" />
    <rect
       id="rect148"
       ry="10"
       rx="10"
       height="52"
       width="119.5"
       y="320"
       x="20"
       style="fill: none; fill-opacity:0; stroke-width: 2; stroke: #000000" />
    <text
       id="text150"
       y="341.6"
       x="79.75"
       style="fill: #000000;text-anchor:middle;font-family:sans-serif;font-style:normal;font-weight:normal"
       font-size="12.8">
      <tspan
         id="tspan152"
         y="341.6"
         x="79.75">&lt;:karate, :racket&gt;</tspan>
      <tspan
         id="tspan154"
         y="357.6"
         x="79.75">&lt;:idea, :dice&gt;</tspan>
    </text>
  </g>
  <g
     id="g156">
    <rect
       id="rect158"
       ry="10"
       rx="10"
       height="36"
       width="80"
       y="320"
       x="180"
       style="fill: #ffffff" />
    <rect
       id="rect160"
       ry="10"
       rx="10"
       height="36"
       width="80"
       y="320"
       x="180"
       style="fill: none; fill-opacity:0; stroke-width: 2; stroke: #000000" />
    <text
       id="text162"
       y="341.6"
       x="220"
       style="fill: #000000;text-anchor:middle;font-family:sans-serif;font-style:normal;font-weight:normal"
       font-size="12.8">
      <tspan
         id="tspan164"
         y="341.6"
         x="220">empty</tspan>
    </text>
  </g>
  <g
     id="g166">
    <rect
       id="rect168"
       ry="10"
       rx="10"
       height="36"
       width="80"
       y="320"
       x="300"
       style="fill: #ffffff" />
    <rect
       id="rect170"
       ry="10"
       rx="10"
       height="36"
       width="80"
       y="320"
       x="300"
       style="fill: none; fill-opacity:0; stroke-width: 2; stroke: #000000" />
    <text
       id="text172"
       y="341.6"
       x="340"
       style="fill: #000000;text-anchor:middle;font-family:sans-serif;font-style:normal;font-weight:normal"
       font-size="12.8">
      <tspan
         id="tspan174"
         y="341.6"
         x="340">...</tspan>
    </text>
  </g>
  <g
     id="g176">
    <polyline
       id="polyline178"
       points="220,356 220,400 95.125,400 95.125,455.528 "
       style="fill: none; fill-opacity:0; stroke-width: 2; stroke: #000000" />
    <polyline
       id="polyline180"
       points="90.125,447.764 95.125,457.764 100.125,447.764 "
       style="fill: none; fill-opacity:0; stroke-width: 2; stroke: #000000" />
    <text
       id="text182"
       y="420"
       x="80"
       style="fill: #000000;text-anchor:middle;font-family:sans-serif;font-style:normal;font-weight:normal"
       font-size="12.7998">+l</text>
  </g>
  <g
     id="g184">
    <rect
       id="rect186"
       ry="10"
       rx="10"
       height="36"
       width="92.55"
       y="460"
       x="40"
       style="fill: #ffffff" />
    <rect
       id="rect188"
       ry="10"
       rx="10"
       height="36"
       width="92.55"
       y="460"
       x="40"
       style="fill: none; fill-opacity:0; stroke-width: 2; stroke: #000000" />
    <text
       id="text190"
       y="481.6"
       x="86.275"
       style="fill: #000000;text-anchor:middle;font-family:sans-serif;font-style:normal;font-weight:normal"
       font-size="12.8">
      <tspan
         id="tspan192"
         y="481.6"
         x="86.275">&lt;:light, :chit&gt;</tspan>
    </text>
  </g>
  <g
     id="g194">
    <polyline
       id="polyline196"
       points="220,356 220,356 220,455.528 "
       style="fill: none; fill-opacity:0; stroke-width: 2; stroke: #000000" />
    <polyline
       id="polyline198"
       points="215,447.764 220,457.764 225,447.764 "
       style="fill: none; fill-opacity:0; stroke-width: 2; stroke: #000000" />
    <text
       id="text200"
       y="420"
       x="240"
       style="fill: #000000;text-anchor:middle;font-family:sans-serif;font-style:normal;font-weight:normal"
       font-size="12.7998">-?</text>
  </g>
  <g
     id="g202">
    <rect
       id="rect204"
       ry="10"
       rx="10"
       height="36"
       width="80"
       y="460"
       x="180"
       style="fill: #ffffff" />
    <rect
       id="rect206"
       ry="10"
       rx="10"
       height="36"
       width="80"
       y="460"
       x="180"
       style="fill: none; fill-opacity:0; stroke-width: 2; stroke: #000000" />
    <text
       id="text208"
       y="481.6"
       x="220"
       style="fill: #000000;text-anchor:middle;font-family:sans-serif;font-style:normal;font-weight:normal"
       font-size="12.8">
      <tspan
         id="tspan210"
         y="481.6"
         x="220">...</tspan>
    </text>
  </g>
  <g
     id="g212">
    <path
       id="path214"
       d="M 360.156 10.3906 L 360.156,0.390625 L 364.531,0.390625 C 365.312,0.390625 365.938,0.546875 366.406,0.703125 C 367.031,0.9375 367.422,1.25 367.656,1.64062 C 368.047,2.10938 368.281,2.57812 368.281,3.20312 C 368.281,3.82812 367.969,4.375 367.344,4.76562 C 366.875,5.23438 366.172,5.54688 365.156,5.70312 C 365.547,5.9375 365.859,6.17188 366.094,6.32812 C 366.484,6.79688 366.797,7.26562 367.031,7.89062 L 368.906,10.3906 L 367.344,10.3906 L 366.094,8.20312 C 365.469,7.57812 365,7.1875 364.844,6.95312 C 364.609,6.5625 364.375,6.32812 364.219,6.32812 C 363.984,6.17188 363.906,6.01562 363.906,6.01562 C 363.438,6.01562 363.125,6.01562 362.969,6.01562 L 361.406,6.01562 L 361.406,10.3906 L 360.156,10.3906z"
       style="fill: #000000" />
    <path
       id="path216"
       d="M 361.406 4.76562 L 364.219,4.76562 C 364.844,4.76562 365.234,4.76562 365.469,4.76562 C 365.859,4.60938 366.172,4.375 366.406,4.14062 C 366.562,3.75 366.719,3.4375 366.719,3.20312 C 366.719,2.57812 366.484,2.1875 366.094,1.95312 C 365.859,1.5625 365.312,1.32812 364.531,1.32812 L 361.406,1.32812z"
       style="fill: #ffffff" />
    <path
       id="path218"
       d="M 369.375 6.64062 C 369.375,5.39062 369.766,4.45312 370.625,3.82812 C 371.25,3.20312 372.031,2.89062 373.125,2.89062 C 374.141,2.89062 374.844,3.20312 375.312,3.82812 C 375.938,4.45312 376.25,5.39062 376.25,6.64062 C 376.25,7.5 376.016,8.20312 375.625,8.82812 C 375.391,9.45312 375.078,10 374.688,10.3906 C 374.219,10.5469 373.75,10.7031 373.125,10.7031 C 372.031,10.7031 371.094,10.3906 370.312,9.76562 C 369.688,8.98438 369.375,7.89062 369.375,6.64062 L 369.375,6.64062z"
       style="fill: #000000" />
    <path
       id="path220"
       d="M 370.938 6.64062 C 370.938,7.73438 371.016,8.4375 371.25,8.82812 C 371.641,9.29688 372.266,9.45312 373.125,9.45312 C 373.75,9.45312 374.141,9.29688 374.375,8.82812 C 374.766,8.4375 375,7.73438 375,6.64062 C 375,5.85938 374.766,5.23438 374.375,4.76562 C 374.141,4.375 373.75,4.14062 373.125,4.14062 C 372.266,4.14062 371.641,4.375 371.25,4.76562 C 371.016,5.23438 370.938,5.85938 370.938,6.64062z"
       style="fill: #ffffff" />
    <path
       id="path222"
       d="M 377.266 6.64062 C 377.266,5.39062 377.656,4.45312 378.516,3.82812 C 379.141,3.20312 379.922,2.89062 381.016,2.89062 C 382.031,2.89062 382.734,3.20312 383.203,3.82812 C 383.828,4.45312 384.141,5.39062 384.141,6.64062 C 384.141,7.5 383.906,8.20312 383.516,8.82812 C 383.281,9.45312 382.969,10 382.578,10.3906 C 382.109,10.5469 381.641,10.7031 381.016,10.7031 C 379.922,10.7031 378.984,10.3906 378.203,9.76562 C 377.578,8.98438 377.266,7.89062 377.266,6.64062 L 377.266,6.64062z"
       style="fill: #000000" />
    <path
       id="path224"
       d="M 378.828 6.64062 C 378.828,7.73438 378.906,8.4375 379.141,8.82812 C 379.531,9.29688 380.156,9.45312 381.016,9.45312 C 381.641,9.45312 382.031,9.29688 382.266,8.82812 C 382.656,8.4375 382.891,7.73438 382.891,6.64062 C 382.891,5.85938 382.656,5.23438 382.266,4.76562 C 382.031,4.375 381.641,4.14062 381.016,4.14062 C 380.156,4.14062 379.531,4.375 379.141,4.76562 C 378.906,5.23438 378.828,5.85938 378.828,6.64062z"
       style="fill: #ffffff" />
    <path
       id="path226"
       d="M 388.516 9.14062 L 388.516,10.3906 C 388.281,10.3906 387.969,10.3906 387.578,10.3906 C 387.109,10.3906 386.797,10.3906 386.641,10.3906 C 386.406,10.2344 386.172,10 386.016,9.76562 C 386.016,9.375 386.016,8.82812 386.016,8.20312 L 386.016,4.14062 L 385.078,4.14062 L 385.078,3.20312 L 386.016,3.20312 L 386.016,1.32812 L 387.266,0.390625 L 387.266,3.20312 L 388.516,3.20312 L 388.516,4.14062 L 387.266,4.14062 L 387.266,8.51562 C 387.266,8.75 387.266,8.98438 387.266,9.14062 C 387.422,9.14062 387.656,9.14062 387.891,9.14062 C 388.047,9.14062 388.281,9.14062 388.516,9.14062 L 388.516,9.14062z"
       style="fill: #000000" />
    <path
       id="path228"
       d="M 393.594 10.3906 L 393.594,3.20312 L 394.531,3.20312 L 394.531,4.14062 C 395.156,3.35938 395.938,2.89062 397.031,2.89062 C 397.422,2.89062 397.812,3.04688 398.281,3.20312 C 398.672,3.20312 398.906,3.4375 398.906,3.82812 C 399.062,4.0625 399.297,4.375 399.531,4.76562 C 399.531,5 399.531,5.39062 399.531,6.01562 L 399.531,10.3906 L 398.281,10.3906 L 398.281,6.01562 C 398.281,5.39062 398.125,5 397.969,4.76562 C 397.969,4.60938 397.812,4.45312 397.656,4.45312 C 397.422,4.29688 397.109,4.14062 396.719,4.14062 C 396.25,4.14062 395.859,4.29688 395.469,4.45312 C 395,4.6875 394.844,5.3125 394.844,6.32812 L 394.844,10.3906 L 393.594,10.3906z"
       style="fill: #000000" />
    <path
       id="path230"
       d="M 400.781 6.64062 C 400.781,5.39062 401.172,4.45312 402.031,3.82812 C 402.656,3.20312 403.438,2.89062 404.531,2.89062 C 405.547,2.89062 406.25,3.20312 406.719,3.82812 C 407.344,4.45312 407.656,5.39062 407.656,6.64062 C 407.656,7.5 407.422,8.20312 407.031,8.82812 C 406.797,9.45312 406.484,10 406.094,10.3906 C 405.625,10.5469 405.156,10.7031 404.531,10.7031 C 403.438,10.7031 402.5,10.3906 401.719,9.76562 C 401.094,8.98438 400.781,7.89062 400.781,6.64062 L 400.781,6.64062z"
       style="fill: #000000" />
    <path
       id="path232"
       d="M 402.344 6.64062 C 402.344,7.73438 402.422,8.4375 402.656,8.82812 C 403.047,9.29688 403.672,9.45312 404.531,9.45312 C 405.156,9.45312 405.547,9.29688 405.781,8.82812 C 406.172,8.4375 406.406,7.73438 406.406,6.64062 C 406.406,5.85938 406.172,5.23438 405.781,4.76562 C 405.547,4.375 405.156,4.14062 404.531,4.14062 C 403.672,4.14062 403.047,4.375 402.656,4.76562 C 402.422,5.23438 402.344,5.85938 402.344,6.64062z"
       style="fill: #ffffff" />
    <path
       id="path234"
       d="M 413.984 10.3906 L 413.984,9.45312 C 413.516,10.3125 412.812,10.7031 411.797,10.7031 C 411.328,10.7031 410.859,10.4688 410.234,10.0781 C 409.766,9.6875 409.375,9.29688 408.984,8.82812 C 408.75,8.20312 408.672,7.5 408.672,6.64062 C 408.672,5.85938 408.75,5.23438 408.984,4.76562 C 409.375,4.14062 409.766,3.75 410.234,3.51562 C 410.625,3.125 411.172,2.89062 411.797,2.89062 C 412.188,2.89062 412.578,3.04688 413.047,3.20312 C 413.438,3.4375 413.75,3.75 413.984,4.14062 L 413.984,0.390625 L 415.234,0.390625 L 415.234,10.3906 L 413.984,10.3906z"
       style="fill: #000000" />
    <path
       id="path236"
       d="M 410.234 6.64062 C 410.234,7.73438 410.312,8.4375 410.547,8.82812 C 410.938,9.29688 411.484,9.45312 412.109,9.45312 C 412.734,9.45312 413.125,9.29688 413.359,8.82812 C 413.75,8.4375 413.984,7.8125 413.984,6.95312 C 413.984,5.9375 413.75,5.23438 413.359,4.76562 C 413.125,4.375 412.734,4.14062 412.109,4.14062 C 411.484,4.14062 410.938,4.375 410.547,4.76562 C 410.312,5.23438 410.234,5.85938 410.234,6.64062z"
       style="fill: #ffffff" />
    <path
       id="path238"
       d="M 422.109 7.89062 L 423.359,8.20312 C 423.125,8.82812 422.734,9.45312 422.109,10.0781 C 421.641,10.4688 421.016,10.7031 420.234,10.7031 C 419.141,10.7031 418.203,10.3906 417.422,9.76562 C 416.797,8.98438 416.484,8.04688 416.484,6.95312 C 416.484,5.54688 416.797,4.45312 417.422,3.82812 C 418.203,3.20312 419.141,2.89062 420.234,2.89062 C 421.25,2.89062 421.953,3.20312 422.422,3.82812 C 423.047,4.45312 423.359,5.39062 423.359,6.64062 C 423.359,6.875 423.359,6.95312 423.359,6.95312 L 418.047,6.95312 C 418.047,7.8125 418.203,8.4375 418.672,8.82812 C 419.062,9.29688 419.609,9.45312 420.234,9.45312 C 420.625,9.45312 420.938,9.375 421.172,9.14062 C 421.562,8.98438 421.875,8.51562 422.109,7.89062 L 422.109,7.89062z"
       style="fill: #000000" />
    <path
       id="path240"
       d="M 418.047 6.01562 L 422.109,6.01562 C 422.109,5.39062 421.953,5 421.797,4.76562 C 421.328,4.375 420.859,4.14062 420.234,4.14062 C 419.609,4.14062 419.062,4.375 418.672,4.76562 C 418.203,5 418.047,5.39062 418.047,6.01562z"
       style="fill: #ffffff" />
    <path
       id="path242"
       d="M 431.406 13.2031 C 430.547,12.5781 429.922,11.6406 429.531,10.3906 C 429.062,9.14062 428.906,7.89062 428.906,6.64062 C 428.906,5.625 428.984,4.60938 429.219,3.51562 C 429.609,2.26562 430.312,1.17188 431.406,0.078125 L 432.031,0.078125 C 431.562,1.17188 431.25,1.875 431.094,2.26562 C 430.625,2.89062 430.469,3.51562 430.469,4.14062 C 430.234,5 430.156,5.85938 430.156,6.64062 C 430.156,8.98438 430.781,11.0938 432.031,13.2031 L 431.406,13.2031z"
       style="fill: #000000" />
    <path
       id="path244"
       d="M 435.469 10.3906 L 432.969,0.390625 L 434.219,0.390625 L 435.781,6.95312 C 435.938,7.57812 436.094,8.35938 436.094,9.14062 C 436.484,7.89062 436.719,7.1875 436.719,6.95312 L 438.594,0.390625 L 440.156,0.390625 L 441.719,5.39062 C 441.875,6.64062 442.109,7.89062 442.344,9.14062 C 442.5,8.35938 442.656,7.57812 442.656,6.95312 L 444.531,0.390625 L 445.781,0.390625 L 442.969,10.3906 L 441.719,10.3906 L 439.844,2.57812 C 439.375,1.95312 439.219,1.64062 439.219,1.64062 C 438.984,2.10938 438.906,2.42188 438.906,2.57812 L 436.719,10.3906 L 435.469,10.3906z"
       style="fill: #000000" />
    <path
       id="path246"
       d="M 446.25 6.64062 C 446.25,5.39062 446.641,4.45312 447.5,3.82812 C 448.125,3.20312 448.906,2.89062 450,2.89062 C 451.016,2.89062 451.719,3.20312 452.188,3.82812 C 452.812,4.45312 453.125,5.39062 453.125,6.64062 C 453.125,7.5 452.891,8.20312 452.5,8.82812 C 452.266,9.45312 451.953,10 451.562,10.3906 C 451.094,10.5469 450.625,10.7031 450,10.7031 C 448.906,10.7031 447.969,10.3906 447.188,9.76562 C 446.562,8.98438 446.25,7.89062 446.25,6.64062 L 446.25,6.64062z"
       style="fill: #000000" />
    <path
       id="path248"
       d="M 447.812 6.64062 C 447.812,7.73438 447.891,8.4375 448.125,8.82812 C 448.516,9.29688 449.141,9.45312 450,9.45312 C 450.625,9.45312 451.016,9.29688 451.25,8.82812 C 451.641,8.4375 451.875,7.73438 451.875,6.64062 C 451.875,5.85938 451.641,5.23438 451.25,4.76562 C 451.016,4.375 450.625,4.14062 450,4.14062 C 449.141,4.14062 448.516,4.375 448.125,4.76562 C 447.891,5.23438 447.812,5.85938 447.812,6.64062z"
       style="fill: #ffffff" />
    <path
       id="path250"
       d="M 454.766 10.3906 L 454.766,3.20312 L 455.703,3.20312 L 455.703,4.14062 C 456.094,3.51562 456.406,3.20312 456.641,3.20312 C 456.797,3.04688 457.031,2.89062 457.266,2.89062 C 457.656,2.89062 458.203,3.04688 458.828,3.20312 L 458.203,4.45312 C 457.969,4.29688 457.656,4.14062 457.266,4.14062 C 457.031,4.14062 456.797,4.29688 456.641,4.45312 C 456.406,4.6875 456.328,4.92188 456.328,5.07812 C 456.094,5.54688 456.016,6.01562 456.016,6.64062 L 456.016,10.3906 L 454.766,10.3906z"
       style="fill: #000000" />
    <path
       id="path252"
       d="M 464.141 10.3906 L 464.141,9.45312 C 463.672,10.3125 462.969,10.7031 461.953,10.7031 C 461.484,10.7031 461.016,10.4688 460.391,10.0781 C 459.922,9.6875 459.531,9.29688 459.141,8.82812 C 458.906,8.20312 458.828,7.5 458.828,6.64062 C 458.828,5.85938 458.906,5.23438 459.141,4.76562 C 459.531,4.14062 459.922,3.75 460.391,3.51562 C 460.781,3.125 461.328,2.89062 461.953,2.89062 C 462.344,2.89062 462.734,3.04688 463.203,3.20312 C 463.594,3.4375 463.906,3.75 464.141,4.14062 L 464.141,0.390625 L 465.391,0.390625 L 465.391,10.3906 L 464.141,10.3906z"
       style="fill: #000000" />
    <path
       id="path254"
       d="M 460.391 6.64062 C 460.391,7.73438 460.469,8.4375 460.703,8.82812 C 461.094,9.29688 461.641,9.45312 462.266,9.45312 C 462.891,9.45312 463.281,9.29688 463.516,8.82812 C 463.906,8.4375 464.141,7.8125 464.141,6.95312 C 464.141,5.9375 463.906,5.23438 463.516,4.76562 C 463.281,4.375 462.891,4.14062 462.266,4.14062 C 461.641,4.14062 461.094,4.375 460.703,4.76562 C 460.469,5.23438 460.391,5.85938 460.391,6.64062z"
       style="fill: #ffffff" />
    <path
       id="path256"
       d="M 466.641 8.20312 L 468.203,7.89062 C 468.203,8.51562 468.281,8.98438 468.516,9.14062 C 468.672,9.375 469.141,9.45312 469.766,9.45312 C 470.391,9.45312 470.781,9.375 471.016,9.14062 C 471.406,8.98438 471.641,8.75 471.641,8.51562 C 471.641,8.125 471.484,7.89062 471.328,7.89062 C 471.094,7.73438 470.547,7.5 469.766,7.26562 C 468.906,7.10938 468.281,6.875 467.891,6.64062 C 467.656,6.48438 467.422,6.25 467.266,6.01562 C 467.031,5.625 466.953,5.3125 466.953,5.07812 C 466.953,4.6875 467.031,4.375 467.266,4.14062 C 467.422,3.98438 467.656,3.67188 467.891,3.20312 C 468.047,3.20312 468.281,3.20312 468.516,3.20312 C 468.906,3.04688 469.297,2.89062 469.766,2.89062 C 470.156,2.89062 470.547,3.04688 471.016,3.20312 C 471.641,3.20312 472.031,3.4375 472.266,3.82812 C 472.422,4.0625 472.578,4.375 472.578,4.76562 L 471.328,5.07812 C 471.328,4.92188 471.094,4.6875 470.703,4.45312 C 470.469,4.29688 470.156,4.14062 469.766,4.14062 C 469.141,4.14062 468.672,4.29688 468.516,4.45312 C 468.281,4.45312 468.203,4.60938 468.203,4.76562 C 468.203,5 468.203,5.23438 468.203,5.39062 C 468.359,5.39062 468.594,5.39062 468.828,5.39062 C 468.828,5.625 469.141,5.85938 469.766,6.01562 C 470.781,6.25 471.406,6.48438 471.641,6.64062 C 472.031,6.64062 472.344,6.875 472.578,7.26562 C 472.734,7.5 472.891,7.8125 472.891,8.20312 C 472.891,8.67188 472.656,9.0625 472.266,9.45312 C 472.031,9.92188 471.719,10.2344 471.328,10.3906 C 470.859,10.5469 470.391,10.7031 469.766,10.7031 C 468.906,10.7031 468.203,10.4688 467.578,10.0781 C 467.109,9.45312 466.797,8.82812 466.641,8.20312 L 466.641,8.20312z"
       style="fill: #000000" />
    <path
       id="path258"
       d="M 474.688 10.3906 L 474.688,0.390625 L 481.25,0.390625 L 481.25,1.64062 L 475.938,1.64062 L 475.938,4.76562 L 480.625,4.76562 L 480.625,5.70312 L 475.938,5.70312 L 475.938,10.3906 L 474.688,10.3906z"
       style="fill: #000000" />
    <path
       id="path260"
       d="M 482.969 1.64062 L 482.969,0.390625 L 484.219,0.390625 L 484.219,1.64062 L 482.969,1.64062z"
       style="fill: #000000" />
    <path
       id="path262"
       d="M 482.969 10.3906 L 482.969,3.20312 L 484.219,3.20312 L 484.219,10.3906 L 482.969,10.3906z"
       style="fill: #000000" />
    <path
       id="path264"
       d="M 486.094 10.3906 L 486.094,3.20312 L 487.031,3.20312 L 487.031,4.14062 C 487.656,3.35938 488.438,2.89062 489.531,2.89062 C 489.922,2.89062 490.312,3.04688 490.781,3.20312 C 491.172,3.20312 491.406,3.4375 491.406,3.82812 C 491.562,4.0625 491.797,4.375 492.031,4.76562 C 492.031,5 492.031,5.39062 492.031,6.01562 L 492.031,10.3906 L 490.781,10.3906 L 490.781,6.01562 C 490.781,5.39062 490.625,5 490.469,4.76562 C 490.469,4.60938 490.312,4.45312 490.156,4.45312 C 489.922,4.29688 489.609,4.14062 489.219,4.14062 C 488.75,4.14062 488.359,4.29688 487.969,4.45312 C 487.5,4.6875 487.344,5.3125 487.344,6.32812 L 487.344,10.3906 L 486.094,10.3906z"
       style="fill: #000000" />
    <path
       id="path266"
       d="M 498.672 10.3906 L 498.672,9.45312 C 498.203,10.3125 497.5,10.7031 496.484,10.7031 C 496.016,10.7031 495.547,10.4688 494.922,10.0781 C 494.453,9.6875 494.062,9.29688 493.672,8.82812 C 493.438,8.20312 493.359,7.5 493.359,6.64062 C 493.359,5.85938 493.438,5.23438 493.672,4.76562 C 494.062,4.14062 494.453,3.75 494.922,3.51562 C 495.312,3.125 495.859,2.89062 496.484,2.89062 C 496.875,2.89062 497.266,3.04688 497.734,3.20312 C 498.125,3.4375 498.438,3.75 498.672,4.14062 L 498.672,0.390625 L 499.922,0.390625 L 499.922,10.3906 L 498.672,10.3906z"
       style="fill: #000000" />
    <path
       id="path268"
       d="M 494.922 6.64062 C 494.922,7.73438 495,8.4375 495.234,8.82812 C 495.625,9.29688 496.172,9.45312 496.797,9.45312 C 497.422,9.45312 497.812,9.29688 498.047,8.82812 C 498.438,8.4375 498.672,7.8125 498.672,6.95312 C 498.672,5.9375 498.438,5.23438 498.047,4.76562 C 497.812,4.375 497.422,4.14062 496.797,4.14062 C 496.172,4.14062 495.625,4.375 495.234,4.76562 C 495,5.23438 494.922,5.85938 494.922,6.64062z"
       style="fill: #ffffff" />
    <path
       id="path270"
       d="M 501.484 6.95312 L 502.734,6.95312 C 502.734,7.57812 502.812,8.125 503.047,8.51562 C 503.203,8.75 503.516,8.98438 503.984,9.14062 C 504.609,9.14062 505.234,9.14062 505.859,9.14062 C 506.25,9.14062 506.641,9.14062 507.109,9.14062 C 507.5,8.98438 507.812,8.75 508.047,8.51562 C 508.203,8.35938 508.359,8.125 508.359,7.89062 C 508.359,7.26562 508.203,6.875 508.047,6.64062 C 507.812,6.48438 507.5,6.32812 507.109,6.32812 C 506.641,6.17188 506.016,5.9375 505.234,5.70312 C 504.375,5.54688 503.75,5.3125 503.359,5.07812 C 502.891,4.92188 502.578,4.60938 502.422,4.14062 C 502.188,3.75 502.109,3.35938 502.109,2.89062 C 502.109,2.5 502.188,2.10938 502.422,1.64062 C 502.578,1.25 502.891,0.9375 503.359,0.703125 C 503.984,0.3125 504.688,0.078125 505.547,0.078125 C 506.172,0.078125 506.797,0.3125 507.422,0.703125 C 508.047,0.9375 508.438,1.25 508.672,1.64062 C 509.062,2.10938 509.297,2.57812 509.297,3.20312 L 508.047,3.20312 C 508.047,2.57812 507.734,2.1875 507.109,1.95312 C 506.641,1.5625 506.172,1.32812 505.547,1.32812 C 504.688,1.32812 504.062,1.5625 503.672,1.95312 C 503.203,2.1875 503.047,2.5 503.047,2.89062 C 503.047,3.125 503.125,3.4375 503.359,3.82812 C 503.75,4.0625 504.453,4.29688 505.547,4.45312 C 506.562,4.6875 507.422,4.92188 508.047,5.07812 C 508.438,5.3125 508.75,5.625 508.984,6.01562 C 509.375,6.48438 509.609,6.95312 509.609,7.57812 C 509.609,8.20312 509.375,8.75 508.984,9.14062 C 508.75,9.60938 508.359,10 507.734,10.3906 C 507.109,10.5469 506.484,10.7031 505.859,10.7031 C 504.766,10.7031 503.984,10.5469 503.359,10.3906 C 502.891,10 502.5,9.60938 502.109,9.14062 C 501.641,8.51562 501.484,7.8125 501.484,6.95312 L 501.484,6.95312z"
       style="fill: #000000" />
    <path
       id="path272"
       d="M 514.062 9.14062 L 514.062,10.3906 C 513.828,10.3906 513.516,10.3906 513.125,10.3906 C 512.656,10.3906 512.344,10.3906 512.188,10.3906 C 511.953,10.2344 511.719,10 511.562,9.76562 C 511.562,9.375 511.562,8.82812 511.562,8.20312 L 511.562,4.14062 L 510.625,4.14062 L 510.625,3.20312 L 511.562,3.20312 L 511.562,1.32812 L 512.812,0.390625 L 512.812,3.20312 L 514.062,3.20312 L 514.062,4.14062 L 512.812,4.14062 L 512.812,8.51562 C 512.812,8.75 512.812,8.98438 512.812,9.14062 C 512.969,9.14062 513.203,9.14062 513.438,9.14062 C 513.594,9.14062 513.828,9.14062 514.062,9.14062 L 514.062,9.14062z"
       style="fill: #000000" />
    <path
       id="path274"
       d="M 515.156 10.3906 L 515.156,3.20312 L 516.094,3.20312 L 516.094,4.14062 C 516.484,3.51562 516.797,3.20312 517.031,3.20312 C 517.188,3.04688 517.422,2.89062 517.656,2.89062 C 518.047,2.89062 518.594,3.04688 519.219,3.20312 L 518.594,4.45312 C 518.359,4.29688 518.047,4.14062 517.656,4.14062 C 517.422,4.14062 517.188,4.29688 517.031,4.45312 C 516.797,4.6875 516.719,4.92188 516.719,5.07812 C 516.484,5.54688 516.406,6.01562 516.406,6.64062 L 516.406,10.3906 L 515.156,10.3906z"
       style="fill: #000000" />
    <path
       id="path276"
       d="M 524.531 10.3906 L 524.531,9.14062 C 524.062,10.2344 523.359,10.7031 522.344,10.7031 C 521.875,10.7031 521.484,10.5469 521.094,10.3906 C 520.625,10.2344 520.312,10 520.156,9.76562 C 520.156,9.375 520,9.0625 519.844,8.82812 C 519.844,8.67188 519.844,8.20312 519.844,7.57812 L 519.844,3.20312 L 521.094,3.20312 L 521.094,6.95312 C 521.094,7.8125 521.094,8.35938 521.094,8.51562 C 521.25,8.75 521.484,8.98438 521.719,9.14062 C 521.875,9.375 522.188,9.45312 522.656,9.45312 C 522.812,9.45312 523.125,9.375 523.594,9.14062 C 523.984,8.98438 524.219,8.75 524.219,8.51562 C 524.375,8.125 524.531,7.57812 524.531,6.95312 L 524.531,3.20312 L 525.781,3.20312 L 525.781,10.3906 L 524.531,10.3906z"
       style="fill: #000000" />
    <path
       id="path278"
       d="M 532.344 7.89062 L 533.594,7.89062 C 533.594,8.75 533.281,9.45312 532.656,10.0781 C 532.031,10.4688 531.406,10.7031 530.781,10.7031 C 529.688,10.7031 528.906,10.3906 528.281,9.76562 C 527.656,8.98438 527.344,8.04688 527.344,6.95312 C 527.344,5.9375 527.422,5.23438 527.656,4.76562 C 527.812,4.14062 528.125,3.75 528.594,3.51562 C 529.219,3.125 529.922,2.89062 530.781,2.89062 C 531.406,2.89062 531.875,3.125 532.344,3.51562 C 532.969,3.98438 533.359,4.60938 533.594,5.39062 L 532.344,5.39062 C 532.344,5 532.109,4.6875 531.719,4.45312 C 531.484,4.29688 531.172,4.14062 530.781,4.14062 C 530.156,4.14062 529.609,4.375 529.219,4.76562 C 528.75,5.23438 528.594,5.85938 528.594,6.64062 C 528.594,7.73438 528.672,8.4375 528.906,8.82812 C 529.297,9.29688 529.922,9.45312 530.781,9.45312 C 531.172,9.45312 531.484,9.375 531.719,9.14062 C 532.109,8.75 532.344,8.35938 532.344,7.89062 L 532.344,7.89062z"
       style="fill: #000000" />
    <path
       id="path280"
       d="M 537.578 9.14062 L 537.578,10.3906 C 537.344,10.3906 537.031,10.3906 536.641,10.3906 C 536.172,10.3906 535.859,10.3906 535.703,10.3906 C 535.469,10.2344 535.234,10 535.078,9.76562 C 535.078,9.375 535.078,8.82812 535.078,8.20312 L 535.078,4.14062 L 534.141,4.14062 L 534.141,3.20312 L 535.078,3.20312 L 535.078,1.32812 L 536.328,0.390625 L 536.328,3.20312 L 537.578,3.20312 L 537.578,4.14062 L 536.328,4.14062 L 536.328,8.51562 C 536.328,8.75 536.328,8.98438 536.328,9.14062 C 536.484,9.14062 536.719,9.14062 536.953,9.14062 C 537.109,9.14062 537.344,9.14062 537.578,9.14062 L 537.578,9.14062z"
       style="fill: #000000" />
    <path
       id="path282"
       d="M 539.609 13.2031 L 538.672,13.2031 C 539.922,11.0938 540.547,8.98438 540.547,6.64062 C 540.547,5.85938 540.391,5 540.234,4.14062 C 540.234,3.51562 540,2.89062 539.609,2.26562 C 539.609,1.875 539.297,1.17188 538.672,0.078125 L 539.609,0.078125 C 540.391,1.17188 541.016,2.26562 541.484,3.51562 C 541.641,4.60938 541.797,5.625 541.797,6.64062 C 541.797,7.89062 541.562,9.14062 541.172,10.3906 C 540.703,11.6406 540.234,12.5781 539.609,13.2031 L 539.609,13.2031z"
       style="fill: #000000" />
    <path
       id="path284"
       d="M 360.156 10.3906 L 360.156,0.390625 L 364.531,0.390625 C 365.312,0.390625 365.938,0.546875 366.406,0.703125 C 367.031,0.9375 367.422,1.25 367.656,1.64062 C 368.047,2.10938 368.281,2.57812 368.281,3.20312 C 368.281,3.82812 367.969,4.375 367.344,4.76562 C 366.875,5.23438 366.172,5.54688 365.156,5.70312 C 365.547,5.9375 365.859,6.17188 366.094,6.32812 C 366.484,6.79688 366.797,7.26562 367.031,7.89062 L 368.906,10.3906 L 367.344,10.3906 L 366.094,8.20312 C 365.469,7.57812 365,7.1875 364.844,6.95312 C 364.609,6.5625 364.375,6.32812 364.219,6.32812 C 363.984,6.17188 363.906,6.01562 363.906,6.01562 C 363.438,6.01562 363.125,6.01562 362.969,6.01562 L 361.406,6.01562 L 361.406,10.3906 L 360.156,10.3906"
       style="fill: none; fill-opacity:0; stroke-width: 0.02; stroke-linecap: round; stroke: #000000" />
    <path
       id="path286"
       d="M 361.406 4.76562 L 364.219,4.76562 C 364.844,4.76562 365.234,4.76562 365.469,4.76562 C 365.859,4.60938 366.172,4.375 366.406,4.14062 C 366.562,3.75 366.719,3.4375 366.719,3.20312 C 366.719,2.57812 366.484,2.1875 366.094,1.95312 C 365.859,1.5625 365.312,1.32812 364.531,1.32812 L 361.406,1.32812 L 361.406,4.76562"
       style="fill: none; fill-opacity:0; stroke-width: 0.02; stroke-linecap: round; stroke: #000000" />
    <path
       id="path288"
       d="M 369.375 6.64062 C 369.375,5.39062 369.766,4.45312 370.625,3.82812 C 371.25,3.20312 372.031,2.89062 373.125,2.89062 C 374.141,2.89062 374.844,3.20312 375.312,3.82812 C 375.938,4.45312 376.25,5.39062 376.25,6.64062 C 376.25,7.5 376.016,8.20312 375.625,8.82812 C 375.391,9.45312 375.078,10 374.688,10.3906 C 374.219,10.5469 373.75,10.7031 373.125,10.7031 C 372.031,10.7031 371.094,10.3906 370.312,9.76562 C 369.688,8.98438 369.375,7.89062 369.375,6.64062 L 369.375,6.64062"
       style="fill: none; fill-opacity:0; stroke-width: 0.02; stroke-linecap: round; stroke: #000000" />
    <path
       id="path290"
       d="M 370.938 6.64062 C 370.938,7.73438 371.016,8.4375 371.25,8.82812 C 371.641,9.29688 372.266,9.45312 373.125,9.45312 C 373.75,9.45312 374.141,9.29688 374.375,8.82812 C 374.766,8.4375 375,7.73438 375,6.64062 C 375,5.85938 374.766,5.23438 374.375,4.76562 C 374.141,4.375 373.75,4.14062 373.125,4.14062 C 372.266,4.14062 371.641,4.375 371.25,4.76562 C 371.016,5.23438 370.938,5.85938 370.938,6.64062 L 370.938,6.64062"
       style="fill: none; fill-opacity:0; stroke-width: 0.02; stroke-linecap: round; stroke: #000000" />
    <path
       id="path292"
       d="M 377.266 6.64062 C 377.266,5.39062 377.656,4.45312 378.516,3.82812 C 379.141,3.20312 379.922,2.89062 381.016,2.89062 C 382.031,2.89062 382.734,3.20312 383.203,3.82812 C 383.828,4.45312 384.141,5.39062 384.141,6.64062 C 384.141,7.5 383.906,8.20312 383.516,8.82812 C 383.281,9.45312 382.969,10 382.578,10.3906 C 382.109,10.5469 381.641,10.7031 381.016,10.7031 C 379.922,10.7031 378.984,10.3906 378.203,9.76562 C 377.578,8.98438 377.266,7.89062 377.266,6.64062 L 377.266,6.64062"
       style="fill: none; fill-opacity:0; stroke-width: 0.02; stroke-linecap: round; stroke: #000000" />
    <path
       id="path294"
       d="M 378.828 6.64062 C 378.828,7.73438 378.906,8.4375 379.141,8.82812 C 379.531,9.29688 380.156,9.45312 381.016,9.45312 C 381.641,9.45312 382.031,9.29688 382.266,8.82812 C 382.656,8.4375 382.891,7.73438 382.891,6.64062 C 382.891,5.85938 382.656,5.23438 382.266,4.76562 C 382.031,4.375 381.641,4.14062 381.016,4.14062 C 380.156,4.14062 379.531,4.375 379.141,4.76562 C 378.906,5.23438 378.828,5.85938 378.828,6.64062 L 378.828,6.64062"
       style="fill: none; fill-opacity:0; stroke-width: 0.02; stroke-linecap: round; stroke: #000000" />
    <path
       id="path296"
       d="M 388.516 9.14062 L 388.516,10.3906 C 388.281,10.3906 387.969,10.3906 387.578,10.3906 C 387.109,10.3906 386.797,10.3906 386.641,10.3906 C 386.406,10.2344 386.172,10 386.016,9.76562 C 386.016,9.375 386.016,8.82812 386.016,8.20312 L 386.016,4.14062 L 385.078,4.14062 L 385.078,3.20312 L 386.016,3.20312 L 386.016,1.32812 L 387.266,0.390625 L 387.266,3.20312 L 388.516,3.20312 L 388.516,4.14062 L 387.266,4.14062 L 387.266,8.51562 C 387.266,8.75 387.266,8.98438 387.266,9.14062 C 387.422,9.14062 387.656,9.14062 387.891,9.14062 C 388.047,9.14062 388.281,9.14062 388.516,9.14062 L 388.516,9.14062"
       style="fill: none; fill-opacity:0; stroke-width: 0.02; stroke-linecap: round; stroke: #000000" />
    <path
       id="path298"
       d="M 393.594 10.3906 L 393.594,3.20312 L 394.531,3.20312 L 394.531,4.14062 C 395.156,3.35938 395.938,2.89062 397.031,2.89062 C 397.422,2.89062 397.812,3.04688 398.281,3.20312 C 398.672,3.20312 398.906,3.4375 398.906,3.82812 C 399.062,4.0625 399.297,4.375 399.531,4.76562 C 399.531,5 399.531,5.39062 399.531,6.01562 L 399.531,10.3906 L 398.281,10.3906 L 398.281,6.01562 C 398.281,5.39062 398.125,5 397.969,4.76562 C 397.969,4.60938 397.812,4.45312 397.656,4.45312 C 397.422,4.29688 397.109,4.14062 396.719,4.14062 C 396.25,4.14062 395.859,4.29688 395.469,4.45312 C 395,4.6875 394.844,5.3125 394.844,6.32812 L 394.844,10.3906 L 393.594,10.3906"
       style="fill: none; fill-opacity:0; stroke-width: 0.02; stroke-linecap: round; stroke: #000000" />
    <path
       id="path300"
       d="M 400.781 6.64062 C 400.781,5.39062 401.172,4.45312 402.031,3.82812 C 402.656,3.20312 403.438,2.89062 404.531,2.89062 C 405.547,2.89062 406.25,3.20312 406.719,3.82812 C 407.344,4.45312 407.656,5.39062 407.656,6.64062 C 407.656,7.5 407.422,8.20312 407.031,8.82812 C 406.797,9.45312 406.484,10 406.094,10.3906 C 405.625,10.5469 405.156,10.7031 404.531,10.7031 C 403.438,10.7031 402.5,10.3906 401.719,9.76562 C 401.094,8.98438 400.781,7.89062 400.781,6.64062 L 400.781,6.64062"
       style="fill: none; fill-opacity:0; stroke-width: 0.02; stroke-linecap: round; stroke: #000000" />
    <path
       id="path302"
       d="M 402.344 6.64062 C 402.344,7.73438 402.422,8.4375 402.656,8.82812 C 403.047,9.29688 403.672,9.45312 404.531,9.45312 C 405.156,9.45312 405.547,9.29688 405.781,8.82812 C 406.172,8.4375 406.406,7.73438 406.406,6.64062 C 406.406,5.85938 406.172,5.23438 405.781,4.76562 C 405.547,4.375 405.156,4.14062 404.531,4.14062 C 403.672,4.14062 403.047,4.375 402.656,4.76562 C 402.422,5.23438 402.344,5.85938 402.344,6.64062 L 402.344,6.64062"
       style="fill: none; fill-opacity:0; stroke-width: 0.02; stroke-linecap: round; stroke: #000000" />
    <path
       id="path304"
       d="M 413.984 10.3906 L 413.984,9.45312 C 413.516,10.3125 412.812,10.7031 411.797,10.7031 C 411.328,10.7031 410.859,10.4688 410.234,10.0781 C 409.766,9.6875 409.375,9.29688 408.984,8.82812 C 408.75,8.20312 408.672,7.5 408.672,6.64062 C 408.672,5.85938 408.75,5.23438 408.984,4.76562 C 409.375,4.14062 409.766,3.75 410.234,3.51562 C 410.625,3.125 411.172,2.89062 411.797,2.89062 C 412.188,2.89062 412.578,3.04688 413.047,3.20312 C 413.438,3.4375 413.75,3.75 413.984,4.14062 L 413.984,0.390625 L 415.234,0.390625 L 415.234,10.3906 L 413.984,10.3906"
       style="fill: none; fill-opacity:0; stroke-width: 0.02; stroke-linecap: round; stroke: #000000" />
    <path
       id="path306"
       d="M 410.234 6.64062 C 410.234,7.73438 410.312,8.4375 410.547,8.82812 C 410.938,9.29688 411.484,9.45312 412.109,9.45312 C 412.734,9.45312 413.125,9.29688 413.359,8.82812 C 413.75,8.4375 413.984,7.8125 413.984,6.95312 C 413.984,5.9375 413.75,5.23438 413.359,4.76562 C 413.125,4.375 412.734,4.14062 412.109,4.14062 C 411.484,4.14062 410.938,4.375 410.547,4.76562 C 410.312,5.23438 410.234,5.85938 410.234,6.64062 L 410.234,6.64062"
       style="fill: none; fill-opacity:0; stroke-width: 0.02; stroke-linecap: round; stroke: #000000" />
    <path
       id="path308"
       d="M 422.109 7.89062 L 423.359,8.20312 C 423.125,8.82812 422.734,9.45312 422.109,10.0781 C 421.641,10.4688 421.016,10.7031 420.234,10.7031 C 419.141,10.7031 418.203,10.3906 417.422,9.76562 C 416.797,8.98438 416.484,8.04688 416.484,6.95312 C 416.484,5.54688 416.797,4.45312 417.422,3.82812 C 418.203,3.20312 419.141,2.89062 420.234,2.89062 C 421.25,2.89062 421.953,3.20312 422.422,3.82812 C 423.047,4.45312 423.359,5.39062 423.359,6.64062 C 423.359,6.875 423.359,6.95312 423.359,6.95312 L 418.047,6.95312 C 418.047,7.8125 418.203,8.4375 418.672,8.82812 C 419.062,9.29688 419.609,9.45312 420.234,9.45312 C 420.625,9.45312 420.938,9.375 421.172,9.14062 C 421.562,8.98438 421.875,8.51562 422.109,7.89062 L 422.109,7.89062"
       style="fill: none; fill-opacity:0; stroke-width: 0.02; stroke-linecap: round; stroke: #000000" />
    <path
       id="path310"
       d="M 418.047 6.01562 L 422.109,6.01562 C 422.109,5.39062 421.953,5 421.797,4.76562 C 421.328,4.375 420.859,4.14062 420.234,4.14062 C 419.609,4.14062 419.062,4.375 418.672,4.76562 C 418.203,5 418.047,5.39062 418.047,6.01562 L 418.047,6.01562"
       style="fill: none; fill-opacity:0; stroke-width: 0.02; stroke-linecap: round; stroke: #000000" />
    <path
       id="path312"
       d="M 431.406 13.2031 C 430.547,12.5781 429.922,11.6406 429.531,10.3906 C 429.062,9.14062 428.906,7.89062 428.906,6.64062 C 428.906,5.625 428.984,4.60938 429.219,3.51562 C 429.609,2.26562 430.312,1.17188 431.406,0.078125 L 432.031,0.078125 C 431.562,1.17188 431.25,1.875 431.094,2.26562 C 430.625,2.89062 430.469,3.51562 430.469,4.14062 C 430.234,5 430.156,5.85938 430.156,6.64062 C 430.156,8.98438 430.781,11.0938 432.031,13.2031 L 431.406,13.2031"
       style="fill: none; fill-opacity:0; stroke-width: 0.02; stroke-linecap: round; stroke: #000000" />
    <path
       id="path314"
       d="M 435.469 10.3906 L 432.969,0.390625 L 434.219,0.390625 L 435.781,6.95312 C 435.938,7.57812 436.094,8.35938 436.094,9.14062 C 436.484,7.89062 436.719,7.1875 436.719,6.95312 L 438.594,0.390625 L 440.156,0.390625 L 441.719,5.39062 C 441.875,6.64062 442.109,7.89062 442.344,9.14062 C 442.5,8.35938 442.656,7.57812 442.656,6.95312 L 444.531,0.390625 L 445.781,0.390625 L 442.969,10.3906 L 441.719,10.3906 L 439.844,2.57812 C 439.375,1.95312 439.219,1.64062 439.219,1.64062 C 438.984,2.10938 438.906,2.42188 438.906,2.57812 L 436.719,10.3906 L 435.469,10.3906"
       style="fill: none; fill-opacity:0; stroke-width: 0.02; stroke-linecap: round; stroke: #000000" />
    <path
       id="path316"
       d="M 446.25 6.64062 C 446.25,5.39062 446.641,4.45312 447.5,3.82812 C 448.125,3.20312 448.906,2.89062 450,2.89062 C 451.016,2.89062 451.719,3.20312 452.188,3.82812 C 452.812,4.45312 453.125,5.39062 453.125,6.64062 C 453.125,7.5 452.891,8.20312 452.5,8.82812 C 452.266,9.45312 451.953,10 451.562,10.3906 C 451.094,10.5469 450.625,10.7031 450,10.7031 C 448.906,10.7031 447.969,10.3906 447.188,9.76562 C 446.562,8.98438 446.25,7.89062 446.25,6.64062 L 446.25,6.64062"
       style="fill: none; fill-opacity:0; stroke-width: 0.02; stroke-linecap: round; stroke: #000000" />
    <path
       id="path318"
       d="M 447.812 6.64062 C 447.812,7.73438 447.891,8.4375 448.125,8.82812 C 448.516,9.29688 449.141,9.45312 450,9.45312 C 450.625,9.45312 451.016,9.29688 451.25,8.82812 C 451.641,8.4375 451.875,7.73438 451.875,6.64062 C 451.875,5.85938 451.641,5.23438 451.25,4.76562 C 451.016,4.375 450.625,4.14062 450,4.14062 C 449.141,4.14062 448.516,4.375 448.125,4.76562 C 447.891,5.23438 447.812,5.85938 447.812,6.64062 L 447.812,6.64062"
       style="fill: none; fill-opacity:0; stroke-width: 0.02; stroke-linecap: round; stroke: #000000" />
    <path
       id="path320"
       d="M 454.766 10.3906 L 454.766,3.20312 L 455.703,3.20312 L 455.703,4.14062 C 456.094,3.51562 456.406,3.20312 456.641,3.20312 C 456.797,3.04688 457.031,2.89062 457.266,2.89062 C 457.656,2.89062 458.203,3.04688 458.828,3.20312 L 458.203,4.45312 C 457.969,4.29688 457.656,4.14062 457.266,4.14062 C 457.031,4.14062 456.797,4.29688 456.641,4.45312 C 456.406,4.6875 456.328,4.92188 456.328,5.07812 C 456.094,5.54688 456.016,6.01562 456.016,6.64062 L 456.016,10.3906 L 454.766,10.3906"
       style="fill: none; fill-opacity:0; stroke-width: 0.02; stroke-linecap: round; stroke: #000000" />
    <path
       id="path322"
       d="M 464.141 10.3906 L 464.141,9.45312 C 463.672,10.3125 462.969,10.7031 461.953,10.7031 C 461.484,10.7031 461.016,10.4688 460.391,10.0781 C 459.922,9.6875 459.531,9.29688 459.141,8.82812 C 458.906,8.20312 458.828,7.5 458.828,6.64062 C 458.828,5.85938 458.906,5.23438 459.141,4.76562 C 459.531,4.14062 459.922,3.75 460.391,3.51562 C 460.781,3.125 461.328,2.89062 461.953,2.89062 C 462.344,2.89062 462.734,3.04688 463.203,3.20312 C 463.594,3.4375 463.906,3.75 464.141,4.14062 L 464.141,0.390625 L 465.391,0.390625 L 465.391,10.3906 L 464.141,10.3906"
       style="fill: none; fill-opacity:0; stroke-width: 0.02; stroke-linecap: round; stroke: #000000" />
    <path
       id="path324"
       d="M 460.391 6.64062 C 460.391,7.73438 460.469,8.4375 460.703,8.82812 C 461.094,9.29688 461.641,9.45312 462.266,9.45312 C 462.891,9.45312 463.281,9.29688 463.516,8.82812 C 463.906,8.4375 464.141,7.8125 464.141,6.95312 C 464.141,5.9375 463.906,5.23438 463.516,4.76562 C 463.281,4.375 462.891,4.14062 462.266,4.14062 C 461.641,4.14062 461.094,4.375 460.703,4.76562 C 460.469,5.23438 460.391,5.85938 460.391,6.64062 L 460.391,6.64062"
       style="fill: none; fill-opacity:0; stroke-width: 0.02; stroke-linecap: round; stroke: #000000" />
    <path
       id="path326"
       d="M 466.641 8.20312 L 468.203,7.89062 C 468.203,8.51562 468.281,8.98438 468.516,9.14062 C 468.672,9.375 469.141,9.45312 469.766,9.45312 C 470.391,9.45312 470.781,9.375 471.016,9.14062 C 471.406,8.98438 471.641,8.75 471.641,8.51562 C 471.641,8.125 471.484,7.89062 471.328,7.89062 C 471.094,7.73438 470.547,7.5 469.766,7.26562 C 468.906,7.10938 468.281,6.875 467.891,6.64062 C 467.656,6.48438 467.422,6.25 467.266,6.01562 C 467.031,5.625 466.953,5.3125 466.953,5.07812 C 466.953,4.6875 467.031,4.375 467.266,4.14062 C 467.422,3.98438 467.656,3.67188 467.891,3.20312 C 468.047,3.20312 468.281,3.20312 468.516,3.20312 C 468.906,3.04688 469.297,2.89062 469.766,2.89062 C 470.156,2.89062 470.547,3.04688 471.016,3.20312 C 471.641,3.20312 472.031,3.4375 472.266,3.82812 C 472.422,4.0625 472.578,4.375 472.578,4.76562 L 471.328,5.07812 C 471.328,4.92188 471.094,4.6875 470.703,4.45312 C 470.469,4.29688 470.156,4.14062 469.766,4.14062 C 469.141,4.14062 468.672,4.29688 468.516,4.45312 C 468.281,4.45312 468.203,4.60938 468.203,4.76562 C 468.203,5 468.203,5.23438 468.203,5.39062 C 468.359,5.39062 468.594,5.39062 468.828,5.39062 C 468.828,5.625 469.141,5.85938 469.766,6.01562 C 470.781,6.25 471.406,6.48438 471.641,6.64062 C 472.031,6.64062 472.344,6.875 472.578,7.26562 C 472.734,7.5 472.891,7.8125 472.891,8.20312 C 472.891,8.67188 472.656,9.0625 472.266,9.45312 C 472.031,9.92188 471.719,10.2344 471.328,10.3906 C 470.859,10.5469 470.391,10.7031 469.766,10.7031 C 468.906,10.7031 468.203,10.4688 467.578,10.0781 C 467.109,9.45312 466.797,8.82812 466.641,8.20312 L 466.641,8.20312"
       style="fill: none; fill-opacity:0; stroke-width: 0.02; stroke-linecap: round; stroke: #000000" />
    <path
       id="path328"
       d="M 474.688 10.3906 L 474.688,0.390625 L 481.25,0.390625 L 481.25,1.64062 L 475.938,1.64062 L 475.938,4.76562 L 480.625,4.76562 L 480.625,5.70312 L 475.938,5.70312 L 475.938,10.3906 L 474.688,10.3906"
       style="fill: none; fill-opacity:0; stroke-width: 0.02; stroke-linecap: round; stroke: #000000" />
    <path
       id="path330"
       d="M 482.969 1.64062 L 482.969,0.390625 L 484.219,0.390625 L 484.219,1.64062 L 482.969,1.64062"
       style="fill: none; fill-opacity:0; stroke-width: 0.02; stroke-linecap: round; stroke: #000000" />
    <path
       id="path332"
       d="M 482.969 10.3906 L 482.969,3.20312 L 484.219,3.20312 L 484.219,10.3906 L 482.969,10.3906"
       style="fill: none; fill-opacity:0; stroke-width: 0.02; stroke-linecap: round; stroke: #000000" />
    <path
       id="path334"
       d="M 486.094 10.3906 L 486.094,3.20312 L 487.031,3.20312 L 487.031,4.14062 C 487.656,3.35938 488.438,2.89062 489.531,2.89062 C 489.922,2.89062 490.312,3.04688 490.781,3.20312 C 491.172,3.20312 491.406,3.4375 491.406,3.82812 C 491.562,4.0625 491.797,4.375 492.031,4.76562 C 492.031,5 492.031,5.39062 492.031,6.01562 L 492.031,10.3906 L 490.781,10.3906 L 490.781,6.01562 C 490.781,5.39062 490.625,5 490.469,4.76562 C 490.469,4.60938 490.312,4.45312 490.156,4.45312 C 489.922,4.29688 489.609,4.14062 489.219,4.14062 C 488.75,4.14062 488.359,4.29688 487.969,4.45312 C 487.5,4.6875 487.344,5.3125 487.344,6.32812 L 487.344,10.3906 L 486.094,10.3906"
       style="fill: none; fill-opacity:0; stroke-width: 0.02; stroke-linecap: round; stroke: #000000" />
    <path
       id="path336"
       d="M 498.672 10.3906 L 498.672,9.45312 C 498.203,10.3125 497.5,10.7031 496.484,10.7031 C 496.016,10.7031 495.547,10.4688 494.922,10.0781 C 494.453,9.6875 494.062,9.29688 493.672,8.82812 C 493.438,8.20312 493.359,7.5 493.359,6.64062 C 493.359,5.85938 493.438,5.23438 493.672,4.76562 C 494.062,4.14062 494.453,3.75 494.922,3.51562 C 495.312,3.125 495.859,2.89062 496.484,2.89062 C 496.875,2.89062 497.266,3.04688 497.734,3.20312 C 498.125,3.4375 498.438,3.75 498.672,4.14062 L 498.672,0.390625 L 499.922,0.390625 L 499.922,10.3906 L 498.672,10.3906"
       style="fill: none; fill-opacity:0; stroke-width: 0.02; stroke-linecap: round; stroke: #000000" />
    <path
       id="path338"
       d="M 494.922 6.64062 C 494.922,7.73438 495,8.4375 495.234,8.82812 C 495.625,9.29688 496.172,9.45312 496.797,9.45312 C 497.422,9.45312 497.812,9.29688 498.047,8.82812 C 498.438,8.4375 498.672,7.8125 498.672,6.95312 C 498.672,5.9375 498.438,5.23438 498.047,4.76562 C 497.812,4.375 497.422,4.14062 496.797,4.14062 C 496.172,4.14062 495.625,4.375 495.234,4.76562 C 495,5.23438 494.922,5.85938 494.922,6.64062 L 494.922,6.64062"
       style="fill: none; fill-opacity:0; stroke-width: 0.02; stroke-linecap: round; stroke: #000000" />
    <path
       id="path340"
       d="M 501.484 6.95312 L 502.734,6.95312 C 502.734,7.57812 502.812,8.125 503.047,8.51562 C 503.203,8.75 503.516,8.98438 503.984,9.14062 C 504.609,9.14062 505.234,9.14062 505.859,9.14062 C 506.25,9.14062 506.641,9.14062 507.109,9.14062 C 507.5,8.98438 507.812,8.75 508.047,8.51562 C 508.203,8.35938 508.359,8.125 508.359,7.89062 C 508.359,7.26562 508.203,6.875 508.047,6.64062 C 507.812,6.48438 507.5,6.32812 507.109,6.32812 C 506.641,6.17188 506.016,5.9375 505.234,5.70312 C 504.375,5.54688 503.75,5.3125 503.359,5.07812 C 502.891,4.92188 502.578,4.60938 502.422,4.14062 C 502.188,3.75 502.109,3.35938 502.109,2.89062 C 502.109,2.5 502.188,2.10938 502.422,1.64062 C 502.578,1.25 502.891,0.9375 503.359,0.703125 C 503.984,0.3125 504.688,0.078125 505.547,0.078125 C 506.172,0.078125 506.797,0.3125 507.422,0.703125 C 508.047,0.9375 508.438,1.25 508.672,1.64062 C 509.062,2.10938 509.297,2.57812 509.297,3.20312 L 508.047,3.20312 C 508.047,2.57812 507.734,2.1875 507.109,1.95312 C 506.641,1.5625 506.172,1.32812 505.547,1.32812 C 504.688,1.32812 504.062,1.5625 503.672,1.95312 C 503.203,2.1875 503.047,2.5 503.047,2.89062 C 503.047,3.125 503.125,3.4375 503.359,3.82812 C 503.75,4.0625 504.453,4.29688 505.547,4.45312 C 506.562,4.6875 507.422,4.92188 508.047,5.07812 C 508.438,5.3125 508.75,5.625 508.984,6.01562 C 509.375,6.48438 509.609,6.95312 509.609,7.57812 C 509.609,8.20312 509.375,8.75 508.984,9.14062 C 508.75,9.60938 508.359,10 507.734,10.3906 C 507.109,10.5469 506.484,10.7031 505.859,10.7031 C 504.766,10.7031 503.984,10.5469 503.359,10.3906 C 502.891,10 502.5,9.60938 502.109,9.14062 C 501.641,8.51562 501.484,7.8125 501.484,6.95312 L 501.484,6.95312"
       style="fill: none; fill-opacity:0; stroke-width: 0.02; stroke-linecap: round; stroke: #000000" />
    <path
       id="path342"
       d="M 514.062 9.14062 L 514.062,10.3906 C 513.828,10.3906 513.516,10.3906 513.125,10.3906 C 512.656,10.3906 512.344,10.3906 512.188,10.3906 C 511.953,10.2344 511.719,10 511.562,9.76562 C 511.562,9.375 511.562,8.82812 511.562,8.20312 L 511.562,4.14062 L 510.625,4.14062 L 510.625,3.20312 L 511.562,3.20312 L 511.562,1.32812 L 512.812,0.390625 L 512.812,3.20312 L 514.062,3.20312 L 514.062,4.14062 L 512.812,4.14062 L 512.812,8.51562 C 512.812,8.75 512.812,8.98438 512.812,9.14062 C 512.969,9.14062 513.203,9.14062 513.438,9.14062 C 513.594,9.14062 513.828,9.14062 514.062,9.14062 L 514.062,9.14062"
       style="fill: none; fill-opacity:0; stroke-width: 0.02; stroke-linecap: round; stroke: #000000" />
    <path
       id="path344"
       d="M 515.156 10.3906 L 515.156,3.20312 L 516.094,3.20312 L 516.094,4.14062 C 516.484,3.51562 516.797,3.20312 517.031,3.20312 C 517.188,3.04688 517.422,2.89062 517.656,2.89062 C 518.047,2.89062 518.594,3.04688 519.219,3.20312 L 518.594,4.45312 C 518.359,4.29688 518.047,4.14062 517.656,4.14062 C 517.422,4.14062 517.188,4.29688 517.031,4.45312 C 516.797,4.6875 516.719,4.92188 516.719,5.07812 C 516.484,5.54688 516.406,6.01562 516.406,6.64062 L 516.406,10.3906 L 515.156,10.3906"
       style="fill: none; fill-opacity:0; stroke-width: 0.02; stroke-linecap: round; stroke: #000000" />
    <path
       id="path346"
       d="M 524.531 10.3906 L 524.531,9.14062 C 524.062,10.2344 523.359,10.7031 522.344,10.7031 C 521.875,10.7031 521.484,10.5469 521.094,10.3906 C 520.625,10.2344 520.312,10 520.156,9.76562 C 520.156,9.375 520,9.0625 519.844,8.82812 C 519.844,8.67188 519.844,8.20312 519.844,7.57812 L 519.844,3.20312 L 521.094,3.20312 L 521.094,6.95312 C 521.094,7.8125 521.094,8.35938 521.094,8.51562 C 521.25,8.75 521.484,8.98438 521.719,9.14062 C 521.875,9.375 522.188,9.45312 522.656,9.45312 C 522.812,9.45312 523.125,9.375 523.594,9.14062 C 523.984,8.98438 524.219,8.75 524.219,8.51562 C 524.375,8.125 524.531,7.57812 524.531,6.95312 L 524.531,3.20312 L 525.781,3.20312 L 525.781,10.3906 L 524.531,10.3906"
       style="fill: none; fill-opacity:0; stroke-width: 0.02; stroke-linecap: round; stroke: #000000" />
    <path
       id="path348"
       d="M 532.344 7.89062 L 533.594,7.89062 C 533.594,8.75 533.281,9.45312 532.656,10.0781 C 532.031,10.4688 531.406,10.7031 530.781,10.7031 C 529.688,10.7031 528.906,10.3906 528.281,9.76562 C 527.656,8.98438 527.344,8.04688 527.344,6.95312 C 527.344,5.9375 527.422,5.23438 527.656,4.76562 C 527.812,4.14062 528.125,3.75 528.594,3.51562 C 529.219,3.125 529.922,2.89062 530.781,2.89062 C 531.406,2.89062 531.875,3.125 532.344,3.51562 C 532.969,3.98438 533.359,4.60938 533.594,5.39062 L 532.344,5.39062 C 532.344,5 532.109,4.6875 531.719,4.45312 C 531.484,4.29688 531.172,4.14062 530.781,4.14062 C 530.156,4.14062 529.609,4.375 529.219,4.76562 C 528.75,5.23438 528.594,5.85938 528.594,6.64062 C 528.594,7.73438 528.672,8.4375 528.906,8.82812 C 529.297,9.29688 529.922,9.45312 530.781,9.45312 C 531.172,9.45312 531.484,9.375 531.719,9.14062 C 532.109,8.75 532.344,8.35938 532.344,7.89062 L 532.344,7.89062"
       style="fill: none; fill-opacity:0; stroke-width: 0.02; stroke-linecap: round; stroke: #000000" />
    <path
       id="path350"
       d="M 537.578 9.14062 L 537.578,10.3906 C 537.344,10.3906 537.031,10.3906 536.641,10.3906 C 536.172,10.3906 535.859,10.3906 535.703,10.3906 C 535.469,10.2344 535.234,10 535.078,9.76562 C 535.078,9.375 535.078,8.82812 535.078,8.20312 L 535.078,4.14062 L 534.141,4.14062 L 534.141,3.20312 L 535.078,3.20312 L 535.078,1.32812 L 536.328,0.390625 L 536.328,3.20312 L 537.578,3.20312 L 537.578,4.14062 L 536.328,4.14062 L 536.328,8.51562 C 536.328,8.75 536.328,8.98438 536.328,9.14062 C 536.484,9.14062 536.719,9.14062 536.953,9.14062 C 537.109,9.14062 537.344,9.14062 537.578,9.14062 L 537.578,9.14062"
       style="fill: none; fill-opacity:0; stroke-width: 0.02; stroke-linecap: round; stroke: #000000" />
    <path
       id="path352"
       d="M 539.609 13.2031 L 538.672,13.2031 C 539.922,11.0938 540.547,8.98438 540.547,6.64062 C 540.547,5.85938 540.391,5 540.234,4.14062 C 540.234,3.51562 540,2.89062 539.609,2.26562 C 539.609,1.875 539.297,1.17188 538.672,0.078125 L 539.609,0.078125 C 540.391,1.17188 541.016,2.26562 541.484,3.51562 C 541.641,4.60938 541.797,5.625 541.797,6.64062 C 541.797,7.89062 541.562,9.14062 541.172,10.3906 C 540.703,11.6406 540.234,12.5781 539.609,13.2031 L 539.609,13.2031"
       style="fill: none; fill-opacity:0; stroke-width: 0.02; stroke-linecap: round; stroke: #000000" />
  </g>
</svg>
